<svg xmlns="http://www.w3.org/2000/svg" viewBox="-43 -50 240 240"><path d="M46.166 38.348l-21.807 63.304H8.203l-21.544-63.304H2.022l13.199 44.057c.706 2.383 1.133 4.488 1.281 6.312h.265c.205-1.971.662-4.134 1.368-6.489l13.11-43.88h14.921zm7.565 63.304V38.348h23.042c7.063 0 12.494 1.295 16.29 3.886 3.795 2.588 5.695 6.238 5.695 10.948 0 3.414-1.157 6.4-3.466 8.959-2.31 2.562-5.26 4.342-8.851 5.343v.176c4.503.56 8.1 2.222 10.794 4.989 2.691 2.766 4.039 6.137 4.039 10.109 0 5.798-2.075 10.396-6.226 13.795-4.149 3.4-9.813 5.099-16.994 5.099H53.731zm14.257-52.797v15.009h6.268c2.944 0 5.262-.713 6.953-2.141 1.692-1.427 2.538-3.391 2.538-5.893 0-4.651-3.47-6.975-10.417-6.975h-5.342zm0 25.604v16.685h7.726c3.295 0 5.878-.763 7.747-2.294 1.869-1.53 2.803-3.622 2.803-6.269 0-2.53-.919-4.518-2.758-5.959-1.839-1.442-4.408-2.163-7.705-2.163h-7.813zm99.354 27.193h-15.538l-4.503-14.083h-22.515l-4.458 14.083h-15.45l23.044-63.304h16.907l22.513 63.304zm-23.308-25.03l-6.797-21.277c-.501-1.59-.855-3.489-1.061-5.696h-.353a24.065 24.065 0 01-1.103 5.518l-6.889 21.455h16.203z" style="line-height:normal;text-wrap-mode:nowrap" fill="#9d6498"/></svg>